<?xml version="1.0" standalone="no"?><!DOCTYPE svg PUBLIC "-//W3C//DTD SVG 1.1//EN" "http://www.w3.org/Graphics/SVG/1.1/DTD/svg11.dtd"><svg t="1544625790483" class="icon" style="" viewBox="0 0 1024 1024" version="1.1" xmlns="http://www.w3.org/2000/svg" p-id="4457" xmlns:xlink="http://www.w3.org/1999/xlink" width="200" height="200"><defs><style type="text/css"></style></defs><path d="M514.041496 63.961754c-248.480234 0-449.90885 201.430662-449.90885 449.90885S265.561261 963.779454 514.041496 963.779454s449.90885-201.430662 449.90885-449.90885S762.520707 63.961754 514.041496 63.961754zM694.464705 688.062901c0 52.66343-4.833075 72.548316-65.387219 72.548316L415.481759 760.611218c-52.53654 0-81.863473-11.559267-81.863473-72.548316L333.618287 510.183631c0-8.108678 7.462972-14.709003 15.613606-14.709003l43.306318 0 0-100.757798c0-67.977207 60.383252-127.584794 128.229476-127.584794l0.907673 0c67.329455 0 121.248482 57.236586 121.248482 127.584794l0 100.715843 37.694507 0c8.153704 0 13.846356 6.598278 13.846356 14.750959L694.464705 688.062901z" p-id="4458"></path><path d="M521.67536 296.588929l-0.907673 0c-52.145637 0-98.772584 45.850258-98.772584 98.126878l0 100.757798 191.465706 0 0-100.757798C613.459786 341.53356 571.923788 296.588929 521.67536 296.588929z" p-id="4459"></path></svg>