<?xml version="1.0" standalone="no"?><!DOCTYPE svg PUBLIC "-//W3C//DTD SVG 1.1//EN" "http://www.w3.org/Graphics/SVG/1.1/DTD/svg11.dtd"><svg t="1544782367912" class="icon" style="" viewBox="0 0 1024 1024" version="1.1" xmlns="http://www.w3.org/2000/svg" p-id="4357" xmlns:xlink="http://www.w3.org/1999/xlink" width="200" height="200"><defs><style type="text/css"></style></defs><path d="M533.051 647.442c-0.007 0.254-0.485 26.164 16.16 43.253 9.9 10.163 23.976 15.318 41.833 15.32l0.79-0.004 0.123 0.007c0.043 0.002 0.386 0.018 0.971 0.018 7.605 0 45.604-2.329 47.051-48.323V343.304l0.505-0.907c0.758-1.363 14.776-25.978 42.217-37.766H392.794s-23.196 0.332-30.092 31.937v306.758H533.17l-0.119 4.116zM425.75 359.897h146.269c5.769 0 10.448 4.677 10.448 10.449 0 5.769-4.678 10.446-10.448 10.446H425.75c-5.769 0-10.447-4.676-10.447-10.446 0-5.772 4.678-10.449 10.447-10.449z m0 52.239h146.269c5.769 0 10.448 4.677 10.448 10.448s-4.678 10.448-10.448 10.448H425.75c-5.769 0-10.447-4.677-10.447-10.448s4.678-10.448 10.447-10.448z m0 62.686h146.269c5.769 0 10.448 4.678 10.448 10.448 0 5.77-4.678 10.448-10.448 10.448H425.75c-5.769 0-10.447-4.677-10.447-10.448 0-5.77 4.678-10.448 10.447-10.448z m0 62.686h146.269c5.769 0 10.448 4.678 10.448 10.448 0 5.77-4.678 10.448-10.448 10.448H425.75c-5.769 0-10.447-4.677-10.447-10.448 0-5.77 4.678-10.448 10.447-10.448z m0 73.134c-5.769 0-10.447-4.677-10.447-10.447s4.677-10.449 10.447-10.449h146.269c5.769 0 10.448 4.678 10.448 10.449 0 5.769-4.678 10.447-10.448 10.447H425.75z" p-id="4358"></path><path d="M743.563 315.4c-13.667-7.847-26.6-8.849-26.729-8.858a72.343 72.343 0 0 0-3.928-0.108c-39.13 0-61.365 33.237-64.929 39.011l-0.002 312.453c-0.865 28.116-14.189 41.73-25.214 48.201-12.55 7.364-26.009 7.938-29.835 7.938-0.636 0-1.07-0.015-1.274-0.023l-0.61 0.003c-20.129-0.003-36.149-5.989-47.616-17.793-14.944-15.386-17.768-36.152-18.274-44.896H239.909c-3.087 21.097 2.367 38.364 16.234 51.364 9.699 9.092 20.373 12.974 22.78 13.77h312.719c23.885-1.169 41.016-11.362 50.913-30.298 7.479-14.309 7.868-28.335 7.871-28.475l-0.001-286.001H776.68c-0.258-1.811-0.538-3.766-0.843-5.877-3.327-23.067-14.187-40.028-32.274-50.411z" p-id="4359"></path><path d="M514.328 66.618c-246.134 0-445.664 199.531-445.664 445.664s199.531 445.664 445.664 445.664 445.664-199.531 445.664-445.664S760.461 66.618 514.328 66.618zM786.574 397.09l-1.194 1.381-1.84 0.01h-0.009c-3.395 0-4.02-2.969-4.681-6.112a310.624 310.624 0 0 1-1.282-6.549 874.893 874.893 0 0 1-1.122-6.133h-118.02v278.088c-0.015 0.735-0.443 16.144-8.78 32.094-7.783 14.891-24.114 32.979-57.715 34.587l-0.096 0.005H277.739l-0.546-0.158c-0.573-0.167-14.181-4.207-26.521-15.774-11.478-10.76-23.932-30.237-18.088-61.927l0.604-3.274h119.483V347.215s-4.211-41.433 40.124-53.229h320.981v4.461c1.183 0.013 2.374 0.045 3.56 0.112 0.638 0.043 14.676 1.081 29.901 9.726 14.104 8.009 31.889 24.292 36.52 56.382 4.413 30.578 4.383 30.613 2.817 32.423z" p-id="4360"></path></svg>