<?xml version="1.0" standalone="no"?><!DOCTYPE svg PUBLIC "-//W3C//DTD SVG 1.1//EN" "http://www.w3.org/Graphics/SVG/1.1/DTD/svg11.dtd"><svg t="1544625620008" class="icon" style="" viewBox="0 0 1024 1024" version="1.1" xmlns="http://www.w3.org/2000/svg" p-id="2364" xmlns:xlink="http://www.w3.org/1999/xlink" width="200" height="200"><defs><style type="text/css"></style></defs><path d="M785.753851 477.745848c-5.048993 2.224668-10.604522 3.5038-16.476253 3.5038L584.774467 481.249649c-22.644743 0-41.000809-18.356067-41.000809-41.000809L543.773657 296.746518c0-2.343371 0.312108-4.605901 0.688685-6.840802-0.298805-4.536316-0.688685-9.049097-0.688685-13.659091 0-113.219621 91.784426-205.003024 205.003024-205.003024s205.003024 91.784426 205.003024 205.003024C953.780729 376.822274 881.296881 460.314851 785.753851 477.745848zM277.268908 952.757422c-113.219621 0-205.003024-91.784426-205.003024-205.003024S164.05031 542.750351 277.268908 542.750351c4.611018 0 9.122775 0.38988 13.659091 0.688685 2.234901-0.3776 4.497431-0.688685 6.840802-0.688685l143.502321 0c22.644743 0 41.000809 18.356067 41.000809 41.000809l0 184.503131c0 5.871731-1.279133 11.42726-3.5038 16.476253C461.338157 880.273575 377.845581 952.757422 277.268908 952.757422zM441.272145 481.249649 256.769015 481.249649c-5.871731 0-11.42726-1.279133-16.476253-3.5038-95.544053-17.430998-168.026878-100.923574-168.026878-201.500247 0-113.219621 91.784426-205.003024 205.003024-205.003024s205.003024 91.784426 205.003024 205.003024c0 4.611018-0.38988 9.122775-0.688685 13.659091 0.3776 2.234901 0.688685 4.497431 0.688685 6.840802l0 143.502321C482.272955 462.893582 463.916888 481.249649 441.272145 481.249649zM584.774467 542.750351l143.502321 0c2.343371 0 4.606925 0.312108 6.840802 0.688685 4.536316-0.298805 9.049097-0.688685 13.659091-0.688685 113.219621 0 205.003024 91.784426 205.003024 205.003024S861.996303 952.757422 748.776681 952.757422c-100.576673 0-184.068226-72.482825-201.500247-168.026878-2.224668-5.048993-3.5038-10.604522-3.5038-16.476253L543.772634 583.751161C543.773657 561.106418 562.129724 542.750351 584.774467 542.750351z" p-id="2365"></path></svg>